<?xml version="1.0" encoding="UTF-8" standalone="no"?>
<!DOCTYPE svg PUBLIC "-//W3C//DTD SVG 1.1//EN" "http://www.w3.org/Graphics/SVG/1.1/DTD/svg11.dtd">
<svg xmlns="http://www.w3.org/2000/svg" version="1.1" viewBox="0.00 0.00 936.00 591.00">
<path fill="#ffffff" d="
  M 207.17 550.67
  C 199.12 558.97 190.29 565.60 178.81 567.98
  C 156.07 572.71 129.96 558.43 112.18 545.82
  C 91.56 531.20 71.46 513.54 55.70 493.74
  Q 35.70 468.63 23.54 440.20
  Q 18.92 429.38 17.33 415.82
  C 12.22 372.27 70.16 362.16 99.96 357.54
  C 107.22 356.41 114.52 356.74 122.09 355.48
  C 126.00 354.82 138.05 355.95 140.35 354.28
  Q 140.74 354.00 141.22 354.00
  Q 177.86 353.99 214.50 354.00
  C 215.11 354.00 216.11 354.67 216.96 354.70
  C 225.99 355.02 235.49 354.36 244.38 355.83
  Q 245.86 356.07 247.63 356.02
  Q 252.52 355.87 261.19 356.81
  Q 264.77 357.20 274.57 357.03
  C 278.95 356.95 283.58 358.20 288.34 357.99
  A 1.06 1.04 15.6 0 0 289.14 357.55
  C 291.53 354.16 292.52 349.89 294.15 346.31
  Q 296.25 341.70 296.27 341.65
  C 329.91 261.91 357.24 187.85 384.67 106.07
  Q 384.89 105.40 384.19 105.50
  L 383.90 105.54
  A 0.60 0.59 -85.4 0 0 383.41 105.96
  Q 380.67 114.63 377.55 123.32
  A 0.14 0.13 61.6 0 1 377.29 123.24
  Q 379.12 114.96 382.24 107.13
  C 383.09 105.01 383.31 102.18 384.75 99.87
  A 2.57 2.52 -23.9 0 0 385.09 99.01
  Q 385.31 97.87 385.95 95.98
  Q 393.78 73.17 401.17 54.24
  C 405.10 44.18 410.04 34.51 414.91 24.78
  C 416.67 21.25 422.52 12.01 426.48 12.01
  Q 426.90 12.01 426.70 12.38
  L 426.54 12.69
  A 0.19 0.19 0.0 0 0 426.72 12.97
  Q 428.77 12.78 429.77 14.60
  Q 430.03 15.07 429.99 15.60
  Q 429.92 16.58 430.62 17.25
  A 1.26 1.23 22.7 0 1 431.00 18.14
  Q 430.92 38.01 429.82 45.57
  Q 428.21 56.66 424.68 69.98
  C 424.19 71.84 422.45 77.51 419.44 74.05
  C 418.13 72.54 418.10 70.70 418.59 68.65
  Q 420.26 61.59 420.97 54.39
  C 421.20 52.01 422.16 48.53 421.91 45.62
  A 0.88 0.88 0.0 0 0 420.22 45.35
  C 417.16 52.49 413.87 59.41 411.50 66.76
  Q 406.48 82.32 401.61 97.92
  C 374.19 185.89 341.90 272.21 306.14 357.06
  A 2.11 2.11 0.0 0 0 308.05 359.99
  C 320.49 360.21 333.96 361.74 345.85 363.06
  C 362.62 364.93 379.47 366.27 396.15 368.93
  A 1.45 1.44 -75.7 0 0 397.75 367.97
  L 413.25 322.79
  Q 413.76 321.29 413.13 319.83
  Q 410.32 313.41 407.90 306.40
  C 406.14 301.32 405.82 295.93 404.77 290.42
  C 403.19 282.10 403.62 272.84 403.82 264.39
  C 404.23 247.20 407.50 227.41 416.23 212.47
  A 0.86 0.85 -75.9 0 1 416.96 212.03
  L 417.93 211.99
  A 1.12 1.12 0.0 0 1 419.07 213.33
  C 417.96 218.83 418.12 224.73 417.33 229.79
  C 415.06 244.35 416.00 259.54 416.00 274.25
  C 416.00 277.00 417.58 281.24 418.10 284.63
  Q 418.96 290.35 421.21 295.27
  A 1.26 1.25 42.5 0 0 423.53 295.17
  C 428.26 281.81 433.23 270.17 439.03 255.83
  Q 442.78 246.55 446.19 240.47
  Q 446.79 239.40 448.97 239.37
  Q 454.82 239.29 459.10 234.24
  A 0.53 0.52 67.9 0 1 460.02 234.63
  C 459.37 241.53 457.94 247.29 454.86 254.02
  Q 441.70 282.80 433.08 307.56
  Q 432.47 309.30 433.24 311.56
  Q 433.40 312.03 433.82 312.31
  C 437.58 314.82 441.12 317.71 446.11 317.82
  C 454.98 318.00 463.40 313.14 470.63 307.69
  C 477.05 302.85 484.25 299.00 490.33 294.24
  C 494.62 290.88 498.51 288.04 503.16 284.18
  Q 517.14 272.60 534.57 267.26
  Q 536.98 266.52 538.57 265.02
  C 545.80 258.19 551.75 246.94 563.00 246.27
  C 571.96 245.74 581.45 252.66 582.88 261.99
  C 583.56 266.40 584.72 267.96 583.12 272.64
  C 582.64 274.02 583.23 275.65 582.81 277.10
  Q 581.88 280.33 580.32 283.26
  A 2.34 2.33 60.8 0 0 580.05 284.22
  Q 579.95 285.93 578.46 286.84
  Q 578.04 287.11 578.02 287.60
  Q 577.97 288.73 577.02 289.42
  A 0.67 0.66 -34.1 0 0 576.84 290.32
  C 578.81 293.36 584.70 285.94 585.91 284.70
  A 2.88 2.88 0.0 0 1 589.86 284.54
  C 593.32 287.55 597.12 292.75 597.01 297.69
  Q 596.84 305.79 598.03 318.47
  C 600.89 348.68 629.15 354.98 654.07 358.36
  C 688.84 363.07 720.30 343.16 740.20 316.13
  C 744.97 309.65 749.51 303.97 752.40 296.25
  C 756.90 284.20 755.87 273.38 749.04 262.68
  C 731.11 234.60 696.71 227.65 664.49 220.36
  C 662.72 219.96 660.88 218.59 658.35 219.08
  A 0.79 0.79 0.0 0 1 657.56 218.78
  Q 656.96 218.00 655.91 218.16
  A 1.71 1.31 -50.2 0 1 656.03 215.12
  L 658.79 214.30
  Q 659.20 214.19 659.60 214.30
  Q 662.59 215.11 665.68 215.01
  A 1.42 1.37 -28.2 0 1 666.53 215.25
  L 667.44 215.87
  A 1.13 1.11 56.5 0 0 668.29 216.05
  Q 670.38 215.64 672.16 216.65
  A 2.20 2.19 -28.2 0 0 673.13 216.94
  C 687.68 217.84 698.93 221.71 715.24 228.24
  C 739.13 237.81 761.22 258.89 763.84 285.30
  C 766.28 309.94 751.84 331.19 732.95 345.21
  C 708.76 363.16 677.76 378.68 647.20 372.25
  C 615.09 365.49 592.05 344.50 587.02 311.64
  A 0.91 0.90 63.3 0 0 585.49 311.13
  Q 566.87 329.56 545.77 344.25
  C 535.34 351.51 526.86 357.28 516.99 346.53
  Q 504.39 332.83 511.28 314.73
  Q 518.35 296.20 528.77 279.34
  Q 529.43 278.26 528.28 277.99
  A 0.73 0.70 36.8 0 0 527.79 278.05
  C 521.51 281.52 516.03 285.14 510.26 290.00
  Q 494.48 303.31 479.05 317.04
  C 465.32 329.26 447.29 343.62 427.94 331.60
  C 425.29 329.95 424.83 331.43 424.10 333.54
  Q 418.04 350.89 411.91 368.53
  Q 411.22 370.53 413.31 370.79
  Q 436.30 373.64 460.48 377.14
  C 553.41 390.58 648.73 406.82 730.74 419.99
  Q 730.82 420.00 739.91 421.21
  C 744.26 421.79 749.15 422.99 752.95 423.60
  Q 837.76 437.23 923.00 447.79
  Q 928.56 448.48 928.00 454.93
  A 2.21 2.21 0.0 0 1 925.91 456.95
  C 916.81 457.43 905.82 456.40 898.37 456.17
  C 887.51 455.82 873.55 454.50 865.88 453.95
  C 831.31 451.51 796.76 447.49 762.40 443.06
  C 758.16 442.52 748.29 441.89 741.26 440.53
  Q 734.78 439.27 732.16 438.90
  C 663.67 429.29 595.47 417.60 527.24 406.28
  Q 475.42 397.68 409.51 388.21
  C 407.38 387.91 406.62 388.27 405.75 390.25
  C 394.61 415.71 382.67 440.39 367.88 463.95
  C 359.81 476.81 350.79 489.54 338.58 498.38
  C 311.38 518.07 274.89 499.59 252.14 482.33
  A 1.83 1.83 0.0 0 0 249.37 483.03
  Q 234.68 515.05 213.97 543.21
  Q 212.61 545.06 207.17 550.67
  Z
  M 571.52 295.21
  Q 570.08 293.26 571.58 290.52
  C 574.10 285.89 578.75 274.03 578.21 266.67
  C 577.51 257.17 568.37 264.68 565.30 267.80
  Q 540.17 293.35 526.96 326.70
  Q 526.33 328.31 526.27 329.53
  A 0.52 0.52 0.0 0 0 527.04 330.01
  C 543.33 320.81 559.71 309.34 573.89 295.99
  A 0.45 0.45 0.0 0 0 573.45 295.23
  L 572.50 295.53
  A 0.89 0.88 -26.5 0 1 571.52 295.21
  Z
  M 35.85 395.33
  C 23.70 405.79 28.19 420.74 33.56 433.45
  C 53.97 481.73 92.68 519.16 140.12 540.83
  C 154.48 547.39 173.28 552.61 187.19 543.44
  Q 197.54 536.61 207.21 523.41
  Q 223.11 501.68 234.48 477.27
  C 235.50 475.10 237.48 471.84 238.41 468.91
  A 1.70 1.68 -55.4 0 0 238.14 467.38
  Q 234.72 462.92 231.15 458.45
  C 227.59 453.99 226.39 449.86 225.40 444.53
  Q 224.86 441.61 227.17 443.48
  L 242.99 456.24
  A 1.19 1.18 -58.5 0 0 244.81 455.80
  L 281.35 375.64
  Q 282.00 374.20 280.43 374.08
  Q 264.07 372.85 248.94 371.93
  C 213.63 369.76 177.98 368.59 142.59 369.59
  C 136.56 369.76 129.71 370.43 123.25 370.74
  C 108.82 371.43 94.65 373.82 80.51 376.55
  C 79.64 376.72 79.29 377.12 78.46 377.29
  C 64.38 380.09 47.19 385.55 35.85 395.33
  Z
  M 342.65 469.28
  Q 342.70 469.26 342.75 469.25
  A 0.71 0.53 5.1 0 0 343.09 469.04
  C 362.30 445.57 375.79 418.81 387.96 391.20
  Q 389.28 388.19 389.76 386.69
  Q 389.95 386.10 389.34 386.00
  Q 375.00 383.69 364.50 382.72
  C 359.20 382.24 354.35 381.19 349.38 380.90
  C 343.74 380.56 337.38 379.43 332.63 378.97
  Q 324.23 378.15 315.82 377.40
  C 311.80 377.04 304.79 375.65 298.94 375.97
  Q 298.46 375.99 298.23 376.42
  Q 296.78 379.01 295.60 381.72
  Q 277.92 422.46 259.21 462.73
  Q 258.52 464.23 258.50 465.96
  A 0.90 0.89 -74.3 0 0 258.92 466.72
  Q 270.67 473.94 283.23 479.62
  C 302.51 488.34 321.14 490.68 337.14 475.22
  Q 340.91 471.58 342.50 469.40
  Q 342.56 469.31 342.65 469.28
  Z"
/>
<path fill="#FFFFFF" d="
  M 417.84 506.17
  C 407.62 497.48 408.47 480.78 422.30 476.17
  C 432.81 472.66 440.86 477.90 446.76 486.23
  A 0.50 0.50 0.0 0 1 446.65 486.91
  L 441.69 490.68
  A 0.54 0.53 52.2 0 1 440.94 490.58
  C 437.46 486.07 434.29 482.24 428.73 482.01
  C 416.62 481.51 415.65 494.77 423.54 501.20
  C 432.42 508.43 446.32 516.76 448.11 529.17
  C 450.13 543.21 436.02 553.43 423.19 550.45
  C 415.29 548.62 410.43 542.99 406.53 536.17
  A 0.55 0.55 0.0 0 1 406.72 535.43
  L 411.94 532.27
  Q 412.40 531.99 412.67 532.46
  C 415.04 536.80 418.47 541.38 423.18 543.07
  C 435.54 547.51 446.33 533.24 437.27 523.00
  C 431.55 516.53 424.42 511.76 417.84 506.17
  Z"
/>
<path fill="#FFFFFF" d="
  M 741.44 513.01
  A 38.00 38.00 0.0 0 1 703.44 551.01
  A 38.00 38.00 0.0 0 1 665.44 513.01
  A 38.00 38.00 0.0 0 1 703.44 475.01
  A 38.00 38.00 0.0 0 1 741.44 513.01
  Z
  M 685.33 537.69
  C 686.83 538.46 687.61 539.85 689.08 540.59
  Q 702.03 547.07 714.69 541.91
  C 739.13 531.95 740.54 496.83 716.72 485.27
  C 684.15 469.46 657.00 513.84 683.69 536.69
  Q 684.16 537.09 685.33 537.69
  Z"
/>
<path fill="#FFFFFF" d="
  M 471.88 484.00
  L 457.14 484.00
  A 0.64 0.64 0.0 0 1 456.50 483.36
  L 456.50 477.64
  A 0.64 0.64 0.0 0 1 457.14 477.00
  L 495.36 477.00
  A 0.64 0.64 0.0 0 1 496.00 477.64
  L 496.00 483.36
  A 0.64 0.64 0.0 0 1 495.36 484.00
  L 480.64 484.00
  A 0.64 0.64 0.0 0 0 480.00 484.64
  L 480.00 548.36
  A 0.64 0.64 0.0 0 1 479.36 549.00
  L 473.13 549.00
  A 0.64 0.64 0.0 0 1 472.49 548.36
  L 472.52 484.64
  A 0.64 0.64 0.0 0 0 471.88 484.00
  Z"
/>
<path fill="#FFFFFF" d="
  M 513.27 527.24
  C 513.30 549.49 545.71 549.25 546.15 527.94
  Q 546.68 503.02 546.44 477.34
  A 0.31 0.31 0.0 0 1 546.75 477.03
  L 552.91 476.99
  Q 553.50 476.98 553.50 477.57
  Q 553.52 500.56 553.43 523.49
  C 553.38 538.21 546.25 551.46 529.92 551.06
  C 515.22 550.71 506.28 541.50 506.13 526.55
  Q 505.87 502.06 506.04 477.54
  Q 506.05 477.00 506.58 477.00
  L 512.68 477.00
  Q 513.25 477.00 513.25 477.58
  Q 513.24 502.44 513.27 527.24
  Z"
/>
<path fill="#FFFFFF" d="
  M 603.48 478.00
  C 640.84 482.61 642.55 543.51 604.57 548.18
  C 593.94 549.49 583.11 549.08 572.41 548.95
  Q 571.75 548.94 571.75 548.28
  L 571.75 477.77
  Q 571.75 477.24 572.27 477.21
  Q 589.44 476.26 603.48 478.00
  Z
  M 578.55 485.04
  L 578.45 541.32
  A 0.75 0.75 0.0 0 0 579.20 542.07
  L 596.83 542.10
  A 28.06 26.92 0.1 0 0 624.94 515.23
  L 624.94 511.29
  A 28.06 26.92 0.1 0 0 596.93 484.32
  L 579.30 484.29
  A 0.75 0.75 0.0 0 0 578.55 485.04
  Z"
/>
<rect fill="#FFFFFF" x="644.75" y="477.01" width="7.02" height="71.98" rx="0.52"/>
</svg>
